<svg width="48" height="48" viewBox="0 0 48 48" fill="none" xmlns="http://www.w3.org/2000/svg">
<rect width="48" height="48" rx="24" fill="#F5FAFF"/>
<path d="M10.6665 20.2667C10.6665 18.7732 10.6665 18.0265 10.9572 17.456C11.2128 16.9543 11.6208 16.5463 12.1225 16.2906C12.693 16 13.4397 16 14.9332 16H25.0665C26.56 16 27.3067 16 27.8771 16.2906C28.3789 16.5463 28.7869 16.9543 29.0425 17.456C29.3332 18.0265 29.3332 18.7732 29.3332 20.2667V27.7333C29.3332 29.2268 29.3332 29.9735 29.0425 30.544C28.7869 31.0457 28.3789 31.4537 27.8771 31.7094C27.3067 32 26.56 32 25.0665 32H14.9332C13.4397 32 12.693 32 12.1225 31.7094C11.6208 31.4537 11.2128 31.0457 10.9572 30.544C10.6665 29.9735 10.6665 29.2268 10.6665 27.7333V20.2667Z" fill="#437EF7"/>
<path d="M35.9998 23.253V24.747C35.9998 26.7456 35.9998 27.7449 35.5815 28.4009C35.2152 28.9751 34.6432 29.3874 33.9826 29.5532C33.2665 29.7331 32.3761 29.4576 30.6665 28.8888V19.1112C32.3761 18.5424 33.2665 18.2669 33.9826 18.4468C34.6432 18.6126 35.2152 19.0249 35.5815 19.5991C35.9998 20.2551 35.9998 21.2544 35.9998 23.253Z" fill="#437EF7"/>
</svg>
