<svg width="48" height="48" viewBox="0 0 48 48" fill="none" xmlns="http://www.w3.org/2000/svg">
<rect width="48" height="48" rx="24" fill="#F5FAFF"/>
<path d="M31.0569 22.2763L22.8539 30.4793C21.5986 28.2473 19.7525 26.4013 17.5205 25.146L27.8246 14.8419C28.3526 14.3139 28.6166 14.0499 28.9211 13.951C29.1888 13.864 29.4773 13.864 29.7451 13.951C30.0495 14.0499 30.3135 14.3139 30.8416 14.842L33.1579 17.1583C33.6859 17.6863 33.9499 17.9503 34.0489 18.2548C34.1359 18.5226 34.1359 18.811 34.0489 19.0788C33.9499 19.3833 33.6859 19.6473 33.1579 20.1753L32.9426 20.3906L35.1378 22.5859C35.9189 23.367 35.9189 24.6333 35.1378 25.4143L31.6092 28.9429C31.0885 29.4636 30.2443 29.4636 29.7236 28.9429C29.2029 28.4222 29.2029 27.578 29.7236 27.0573L32.7808 24.0001L31.0569 22.2763Z" fill="#437EF7"/>
<path d="M15.6812 27.6223L14.6823 30.6191C14.248 31.9219 14.0309 32.5733 14.1854 33.0064C14.3198 33.3834 14.6165 33.6801 14.9934 33.8145C15.4266 33.9689 16.078 33.7518 17.3808 33.3176L20.3775 32.3186C20.5285 32.2683 20.6478 32.2285 20.7475 32.1933C19.6635 30.067 17.9328 28.3364 15.8066 27.2524C15.7713 27.3521 15.7315 27.4714 15.6812 27.6223Z" fill="#437EF7"/>
</svg>
