<svg width="48" height="48" viewBox="0 0 48 48" fill="none" xmlns="http://www.w3.org/2000/svg">
<rect width="48" height="48" rx="24" fill="#F5FAFF"/>
<path d="M11.9998 12C11.2635 12 10.6665 12.597 10.6665 13.3333C10.6665 14.0697 11.2635 14.6667 11.9998 14.6667H13.4991L15.1696 27.1953C15.4346 29.1825 17.1297 30.6667 19.1345 30.6667H30.7279C32.5563 30.6667 34.152 29.4268 34.6038 27.6551L36.4437 20.4403C37.0887 17.9112 35.1779 15.4519 32.5678 15.4519H16.2941L16.1424 14.3142C15.9658 12.9894 14.8357 12 13.4991 12H11.9998Z" fill="#437EF7"/>
<path d="M14.6665 34.6667C14.6665 33.1939 15.8604 32 17.3332 32C18.8059 32 19.9998 33.1939 19.9998 34.6667C19.9998 36.1394 18.8059 37.3333 17.3332 37.3333C15.8604 37.3333 14.6665 36.1394 14.6665 34.6667Z" fill="#437EF7"/>
<path d="M31.9998 32C30.5271 32 29.3332 33.1939 29.3332 34.6667C29.3332 36.1394 30.5271 37.3333 31.9998 37.3333C33.4726 37.3333 34.6665 36.1394 34.6665 34.6667C34.6665 33.1939 33.4726 32 31.9998 32Z" fill="#437EF7"/>
</svg>
